<svg width="35" height="35" viewBox="0 0 35 35" fill="none" xmlns="http://www.w3.org/2000/svg">
<path d="M17.5 2.91666C9.44563 2.91666 2.91667 9.44562 2.91667 17.5C2.91667 25.5544 9.44563 32.0833 17.5 32.0833C25.5544 32.0833 32.0833 25.5544 32.0833 17.5C32.0833 9.44562 25.5544 2.91666 17.5 2.91666Z" stroke="black" stroke-width="1.5" stroke-linecap="round" stroke-linejoin="round"/>
<path d="M6.22855 26.7546C6.22855 26.7546 9.47917 22.6042 17.5 22.6042C25.5208 22.6042 28.7729 26.7546 28.7729 26.7546" stroke="black" stroke-width="1.5" stroke-linecap="round" stroke-linejoin="round"/>
<path d="M17.5 17.5C18.6603 17.5 19.7731 17.0391 20.5936 16.2186C21.4141 15.3981 21.875 14.2853 21.875 13.125C21.875 11.9647 21.4141 10.8519 20.5936 10.0314C19.7731 9.21094 18.6603 8.75 17.5 8.75C16.3397 8.75 15.2269 9.21094 14.4064 10.0314C13.5859 10.8519 13.125 11.9647 13.125 13.125C13.125 14.2853 13.5859 15.3981 14.4064 16.2186C15.2269 17.0391 16.3397 17.5 17.5 17.5V17.5Z" stroke="black" stroke-width="1.5" stroke-linecap="round" stroke-linejoin="round"/>
</svg>
